<?xml version="1.0" standalone="no"?>
<!DOCTYPE svg PUBLIC "-//W3C//DTD SVG 20010904//EN"
 "http://www.w3.org/TR/2001/REC-SVG-20010904/DTD/svg10.dtd">
<svg version="1.0" xmlns="http://www.w3.org/2000/svg"
 width="550.000000pt" height="541.000000pt" viewBox="0 0 550.000000 541.000000"
 preserveAspectRatio="xMidYMid meet">

<g transform="translate(0.000000,541.000000) scale(0.100000,-0.100000)"
fill="#000000" stroke="none">
<path d="M74 5391 c-17 -10 -41 -33 -53 -49 l-21 -30 0 -1980 c0 -1854 1
-1982 17 -2010 38 -67 38 -67 451 -70 l372 -3 0 -557 c0 -349 4 -571 10 -594
19 -68 98 -107 164 -82 9 4 278 281 599 618 l582 611 1610 5 c1481 5 1612 6
1641 22 16 9 35 28 42 43 9 20 12 496 12 2022 l0 1996 -40 39 -41 38 -2657 0
c-2591 0 -2658 -1 -2688 -19z m5186 -2066 l0 -1835 -1581 0 -1581 0 -57 -58
c-31 -32 -256 -268 -500 -525 -245 -257 -448 -467 -453 -467 -4 0 -8 221 -8
491 l0 491 -34 34 -34 34 -381 0 -381 0 0 1835 0 1835 2505 0 2505 0 0 -1835z"/>
<path d="M1372 3629 c-139 -69 -131 -275 13 -340 132 -60 279 51 262 197 -14
128 -156 202 -275 143z"/>
<path d="M2670 3631 c-52 -28 -81 -64 -96 -120 -41 -160 122 -295 266 -219
142 76 138 269 -7 342 -42 21 -119 20 -163 -3z"/>
<path d="M3975 3637 c-154 -71 -150 -286 7 -352 21 -8 52 -15 71 -15 46 0 115
38 151 82 62 79 40 209 -46 266 -48 31 -136 40 -183 19z"/>
</g>
</svg>
