<?xml version="1.0" standalone="no"?>
<!DOCTYPE svg PUBLIC "-//W3C//DTD SVG 20010904//EN"
 "http://www.w3.org/TR/2001/REC-SVG-20010904/DTD/svg10.dtd">
<svg version="1.0" xmlns="http://www.w3.org/2000/svg"
 width="200.000000pt" height="175.000000pt" viewBox="0 0 200.000000 175.000000"
 preserveAspectRatio="xMidYMid meet">

<g transform="translate(0.000000,175.000000) scale(0.100000,-0.100000)"
fill="#000000" stroke="none">
<path d="M401 1724 c-56 -47 -141 -260 -231 -579 -48 -172 -78 -234 -133 -278
l-40 -31 6 -64 c9 -91 53 -180 122 -248 83 -80 119 -83 197 -14 61 53 83 60
198 60 242 0 450 132 450 287 0 43 -23 73 -56 73 -10 0 -46 -18 -79 -40 -74
-49 -116 -64 -160 -56 -102 20 -117 152 -25 230 55 46 121 26 180 -56 54 -74
103 -87 151 -39 78 79 -7 254 -143 296 -62 19 -9 19 62 0 65 -18 99 -13 134
20 34 32 33 66 -4 109 -65 74 -203 93 -370 50 -19 -5 -8 9 40 52 155 138 169
167 110 226 -28 27 -35 30 -72 24 -51 -8 -97 -35 -162 -96 -47 -43 -49 -44
-42 -18 8 34 -15 92 -42 107 -32 17 -58 13 -91 -15z m79 -39 c20 -24 -3 -107
-61 -226 -39 -79 -47 -104 -38 -115 19 -23 27 -17 58 44 79 156 235 312 313
312 22 0 29 -6 34 -27 6 -23 -3 -35 -86 -112 -93 -85 -220 -226 -220 -243 0
-24 34 -15 97 26 91 59 165 80 263 74 89 -5 163 -38 168 -75 6 -40 -30 -48
-121 -27 -67 15 -88 16 -135 6 -79 -16 -186 -73 -190 -100 -4 -26 6 -27 72 -7
67 21 162 19 211 -4 81 -36 139 -135 112 -190 -21 -45 -49 -38 -95 22 -81 108
-176 123 -256 43 -85 -85 -86 -216 -1 -272 69 -45 143 -36 243 28 39 25 67 37
72 32 16 -16 -9 -83 -47 -124 -78 -87 -196 -131 -363 -135 -133 -4 -150 -9
-214 -64 -26 -23 -56 -41 -67 -41 -30 0 -115 86 -144 144 -14 29 -28 76 -32
105 -6 52 -5 53 39 99 60 62 69 82 119 258 80 286 164 510 212 562 24 26 40
28 57 7z"/>
<path d="M1734 1277 c-11 -7 -42 -30 -69 -52 l-48 -40 -121 -2 c-129 -1 -211
-20 -308 -69 -116 -59 -188 -189 -148 -265 16 -28 64 -24 113 10 67 45 103 61
142 61 70 0 115 -43 115 -108 0 -48 -41 -115 -82 -135 -56 -28 -98 -11 -155
63 -51 67 -86 86 -126 71 -55 -21 -76 -87 -52 -160 22 -67 86 -132 156 -159
63 -25 47 -28 -31 -7 -87 23 -127 20 -161 -14 -16 -16 -29 -39 -29 -51 0 -36
68 -96 130 -114 67 -20 181 -21 246 -2 l49 15 -103 -97 c-113 -107 -124 -132
-81 -186 41 -52 136 -28 234 57 l50 44 -3 -38 c-3 -32 1 -43 26 -69 34 -34 50
-37 91 -15 62 32 138 203 246 555 68 218 78 241 139 298 39 36 46 49 46 80 0
116 -74 253 -169 314 -49 31 -66 33 -97 15z m103 -81 c58 -53 103 -137 110
-211 5 -52 4 -54 -31 -86 -56 -48 -80 -99 -136 -283 -99 -325 -183 -530 -232
-560 -12 -7 -21 -6 -33 4 -27 23 -12 89 52 222 46 97 54 121 43 128 -19 12
-31 0 -65 -62 -65 -121 -192 -254 -272 -284 -45 -18 -46 -18 -64 5 -10 12 -16
28 -13 35 3 7 43 46 90 85 85 73 224 222 224 241 0 24 -31 20 -72 -8 -98 -67
-212 -101 -296 -86 -132 22 -204 82 -136 113 21 9 38 8 85 -5 86 -24 177 -16
259 25 79 39 99 56 83 72 -9 9 -24 9 -60 -2 -75 -22 -180 -18 -229 8 -82 43
-133 139 -103 192 23 41 43 37 84 -16 61 -80 90 -98 162 -98 59 0 64 2 103 40
77 75 89 181 29 250 -62 70 -156 70 -266 0 -37 -24 -72 -40 -76 -36 -18 18 15
94 61 140 75 75 249 130 376 118 84 -8 124 5 188 58 29 24 60 44 69 44 9 1 39
-19 66 -43z"/>
</g>
</svg>
