<?xml version="1.0" standalone="no"?>
<!DOCTYPE svg PUBLIC "-//W3C//DTD SVG 20010904//EN"
 "http://www.w3.org/TR/2001/REC-SVG-20010904/DTD/svg10.dtd">
<svg version="1.0" xmlns="http://www.w3.org/2000/svg"
 width="550.000000pt" height="550.000000pt" viewBox="0 0 550.000000 550.000000"
 preserveAspectRatio="xMidYMid meet">

<g transform="translate(0.000000,550.000000) scale(0.100000,-0.100000)"
fill="#000000" stroke="none">
<path d="M1960 5489 c-131 -13 -331 -56 -468 -101 -224 -73 -500 -225 -686
-377 -564 -461 -865 -1179 -795 -1897 48 -501 270 -971 626 -1328 459 -460
1088 -692 1728 -637 168 15 189 23 193 72 5 59 -10 65 -142 51 -883 -92 -1708
363 -2091 1152 -498 1027 -63 2263 969 2757 996 476 2192 78 2711 -904 164
-310 239 -637 233 -1010 -3 -177 -2 -189 16 -203 25 -18 47 -18 71 0 49 35 45
404 -6 666 -113 581 -444 1074 -947 1413 -118 80 -361 197 -509 246 -281 93
-607 129 -903 100z"/>
<path d="M1920 5104 c-409 -62 -758 -245 -1046 -547 -209 -219 -351 -468 -430
-755 -169 -617 -5 -1268 435 -1725 299 -311 675 -497 1106 -548 180 -21 531 3
567 39 16 16 13 61 -5 80 -15 14 -29 14 -134 3 -144 -15 -346 -16 -456 -1
-710 97 -1285 634 -1427 1331 -186 910 392 1789 1306 1989 203 44 468 44 683
0 685 -139 1224 -706 1326 -1396 20 -135 20 -376 1 -504 -13 -83 -13 -98 0
-117 18 -28 64 -31 86 -5 24 26 39 131 45 308 8 239 -15 410 -88 628 -89 268
-217 480 -414 685 -283 294 -643 479 -1045 536 -131 18 -383 18 -510 -1z"/>
<path d="M2121 4854 c-18 -23 -21 -41 -21 -118 0 -53 6 -101 13 -116 15 -30
54 -45 90 -36 42 10 57 52 57 154 0 110 -18 142 -80 142 -30 0 -43 -6 -59 -26z"/>
<path d="M2918 4650 c-30 -18 -88 -125 -88 -162 0 -55 54 -90 104 -67 30 14
106 134 106 168 0 50 -75 88 -122 61z"/>
<path d="M1330 4630 c-32 -32 -25 -75 26 -157 61 -98 94 -114 148 -72 38 30
35 76 -10 147 -20 31 -45 67 -57 80 -26 28 -79 30 -107 2z"/>
<path d="M2117 4386 c-14 -13 -29 -35 -32 -48 -3 -12 -4 -256 -3 -540 l3 -518
28 -27 27 -28 343 -3 c228 -2 354 0 379 8 81 23 91 137 17 176 -22 11 -86 14
-314 14 l-285 0 0 449 c0 294 -4 459 -11 479 -22 63 -103 83 -152 38z"/>
<path d="M841 4089 c-46 -18 -64 -66 -41 -109 12 -23 150 -100 178 -100 34 0
75 43 75 78 0 40 -12 54 -87 95 -77 43 -95 48 -125 36z"/>
<path d="M3396 4051 c-77 -43 -86 -53 -86 -97 0 -38 36 -74 73 -74 29 0 127
50 165 83 48 43 12 127 -54 127 -16 0 -60 -18 -98 -39z"/>
<path d="M646 3379 c-37 -29 -37 -89 2 -119 24 -19 37 -21 110 -18 74 3 86 6
103 27 26 32 24 77 -6 106 -21 22 -33 25 -103 25 -65 0 -84 -4 -106 -21z"/>
<path d="M3505 3375 c-30 -29 -32 -74 -6 -106 17 -21 29 -24 103 -27 73 -3 86
-1 111 18 38 30 38 90 1 119 -22 17 -41 21 -106 21 -70 0 -82 -3 -103 -25z"/>
<path d="M3014 2826 c-33 -33 -34 -36 -34 -119 l0 -85 -96 -4 c-94 -3 -96 -4
-125 -36 l-29 -32 0 -1105 0 -1105 29 -32 29 -33 111 -3 111 -4 0 -101 c0
-108 9 -131 57 -156 16 -8 350 -11 1193 -11 l1172 0 34 34 34 34 -2 1246 -3
1246 -28 27 -27 28 -264 3 -264 3 -4 90 c-3 88 -4 92 -36 120 -26 23 -42 29
-78 29 -39 0 -51 -5 -80 -34 -33 -33 -34 -36 -34 -120 l0 -86 -170 0 -170 0 0
86 c0 84 -1 87 -34 120 -28 28 -41 34 -78 34 -83 0 -118 -48 -118 -165 l0 -75
-165 0 -165 0 0 70 c0 116 -36 170 -112 170 -88 0 -120 -40 -126 -157 l-5 -83
-163 0 -164 0 0 86 c0 84 -1 87 -34 120 -29 29 -41 34 -81 34 -40 0 -52 -5
-81 -34z m-34 -371 c0 -57 21 -100 60 -120 86 -44 170 15 170 120 l0 45 165 0
165 0 0 -27 c0 -83 42 -141 108 -150 75 -10 132 48 132 136 l0 41 165 0 165 0
0 -45 c0 -89 54 -142 134 -132 62 9 96 51 96 122 l0 55 170 0 170 0 0 -55 c0
-71 34 -113 96 -122 80 -10 134 43 134 132 l0 45 95 0 95 0 0 -1055 0 -1055
-1125 0 -1125 0 0 1055 0 1055 65 0 65 0 0 -45z m2400 -1145 l0 -1190 -1130 0
-1130 0 0 75 0 75 1021 2 1021 3 29 33 29 32 0 1080 0 1080 80 0 80 0 0 -1190z"/>
<path d="M885 2724 c-81 -42 -95 -56 -95 -99 0 -39 36 -75 74 -75 34 0 152 65
166 90 16 30 12 64 -10 88 -12 12 -25 22 -30 22 -4 0 -15 2 -22 5 -8 3 -45
-11 -83 -31z"/>
<path d="M1412 2211 c-22 -14 -92 -135 -92 -159 0 -31 43 -72 75 -72 41 0 59
14 98 78 42 68 47 112 17 142 -21 21 -74 27 -98 11z"/>
<path d="M2144 2008 c-32 -15 -44 -51 -44 -127 0 -88 22 -121 80 -121 59 0 80
33 80 127 0 69 -2 77 -29 104 -31 30 -52 35 -87 17z"/>
</g>
</svg>
